<svg width="89" height="60" viewBox="0 0 89 30" fill="none" xmlns="http://www.w3.org/2000/svg">
<path d="M30.1035 25.2082V20.8333H31.041V25.2082H30.1035Z" fill="white"/>
<path d="M31.5756 23.627C31.5756 22.5832 32.2506 21.9895 33.2818 21.9895C34.3506 21.9895 34.9381 22.6207 35.0006 23.2895H34.0568C34.0568 23.2895 33.8756 22.8082 33.2568 22.8145C32.7756 22.8145 32.4443 23.102 32.4443 23.6207C32.4381 24.1332 32.7631 24.477 33.2693 24.477C33.8693 24.4832 34.0756 24.002 34.0756 24.002H35.0193C34.9131 24.7082 34.3256 25.3082 33.3006 25.3082C32.2506 25.3082 31.5756 24.6707 31.5756 23.627Z" fill="white"/>
<path d="M35.4102 23.6457C35.4102 22.6145 36.1289 21.9895 37.2477 21.9895C38.3664 21.9895 39.0852 22.6707 39.0852 23.6457C39.0852 24.627 38.3664 25.3082 37.2477 25.3082C36.1289 25.3082 35.4102 24.677 35.4102 23.6457ZM36.3477 23.6457C36.3477 24.0957 36.5789 24.4645 37.2477 24.4645C37.9102 24.4645 38.1477 24.0957 38.1477 23.6457C38.1477 23.1957 37.9102 22.8332 37.2477 22.8332C36.5789 22.8332 36.3477 23.1957 36.3477 23.6457Z" fill="white"/>
<path d="M40.695 22.2395C40.945 22.0457 41.2263 21.9895 41.6138 21.9895C42.245 21.9895 42.7325 22.352 42.7325 23.0645V25.2082H41.8575V23.6957C41.8575 23.127 41.6575 22.8707 41.2325 22.8707C40.7763 22.8707 40.3825 23.127 40.3825 23.6957V25.2082H39.5075V22.0832H40.3825V22.1207C40.3825 22.3957 40.245 22.7207 40.145 22.9832L40.2888 23.0395C40.3888 22.777 40.4763 22.4082 40.695 22.2395Z" fill="white"/>
<path d="M43.3712 21.7082V20.8333H44.3087V21.7082H43.3712ZM43.4087 25.2082V22.0832H44.2774V25.2082H43.4087Z" fill="white"/>
<path d="M47.6148 28.9582V24.9645C47.6148 24.777 47.7335 24.5582 47.7898 24.3832L47.646 24.3332C47.5835 24.5082 47.5523 24.7645 47.421 24.8957C47.196 25.1332 46.8773 25.302 46.4585 25.302C45.571 25.302 44.9273 24.527 44.896 23.6395C44.871 22.7082 45.5273 21.9832 46.4648 21.9832C46.8773 21.9832 47.2023 22.127 47.4273 22.3707C47.5585 22.502 47.5835 22.7645 47.6398 22.9395L47.7898 22.8895C47.7273 22.7145 47.6148 22.4957 47.6148 22.3082V22.0832L48.4898 22.0895V28.9645L47.6148 28.9582ZM46.6023 22.7957C46.0773 22.7957 45.771 23.1457 45.771 23.6207C45.771 24.0957 46.0773 24.4895 46.6023 24.4895C47.1273 24.4895 47.4273 24.0957 47.4273 23.6207C47.4273 23.1457 47.1273 22.7957 46.6023 22.7957Z" fill="white"/>
<path d="M51.2393 25.027C50.9955 25.2645 50.7643 25.302 50.3268 25.302C49.6955 25.302 49.0893 24.9332 49.0893 24.227V22.0832H49.9643V23.6707C49.9643 24.3207 50.2643 24.5395 50.683 24.5395C51.1393 24.5395 51.433 24.2707 51.433 23.6707V22.0832H52.308V25.2082H51.433V25.102C51.4393 24.9207 51.558 24.7145 51.6205 24.5457L51.4768 24.4895C51.4143 24.6582 51.3705 24.902 51.2393 25.027Z" fill="white"/>
<path d="M54.8227 25.3082C53.4977 25.3082 52.7852 24.5582 52.7852 23.627C52.7852 22.6957 53.5602 21.9895 54.6602 21.9895C55.7977 21.9895 56.4977 22.7582 56.4914 23.627C56.4914 23.6957 56.4977 23.8457 56.4914 23.8957H53.8602C53.8602 24.202 54.1414 24.577 54.7352 24.577C55.1164 24.577 55.3539 24.4332 55.4164 24.3145H56.4227C56.3289 24.6395 55.8477 25.3082 54.8227 25.3082ZM53.8602 23.352H55.4602C55.4602 22.952 55.1664 22.6582 54.6852 22.6582C54.1977 22.6582 53.8602 22.9895 53.8602 23.352Z" fill="white"/>
<path d="M49.1455 28.9583V26.0417H51.2205V26.625H49.7497V27.1833H51.1163V27.7667H49.7497V28.375H51.2413V28.9583H49.1455Z" fill="white"/>
<path d="M53.2048 27.0375V25.9375L53.7882 25.9333V28.9542L53.2048 28.9583V28.8083C53.2048 28.6833 53.2798 28.5375 53.3173 28.4208L53.2215 28.3875C53.1798 28.5042 53.1632 28.6792 53.0798 28.7667C52.9257 28.9292 52.7132 29.025 52.434 29.025C51.809 29.025 51.3715 28.5375 51.3923 27.9208C51.409 27.3292 51.8382 26.8125 52.4298 26.8125C52.709 26.8125 52.9215 26.925 53.0757 27.0833C53.1632 27.1708 53.1798 27.3417 53.2215 27.4583L53.3215 27.425C53.2798 27.3083 53.2048 27.1625 53.2048 27.0375ZM52.5257 28.4833C52.8757 28.4833 53.0798 28.25 53.0798 27.9333C53.0798 27.6167 52.8757 27.3542 52.5257 27.3542C52.1757 27.3542 51.9757 27.6167 51.9757 27.9333C51.9757 28.25 52.1757 28.4833 52.5257 28.4833Z" fill="white"/>
<path d="M55.973 28.7417C55.8063 28.9167 55.5688 29.025 55.273 29.025C54.6314 29.025 54.1772 28.525 54.1772 27.9042C54.1772 27.2833 54.6314 26.8125 55.273 26.8125C55.5647 26.8125 55.8022 26.9083 55.9647 27.075C56.0522 27.1625 56.073 27.3375 56.1188 27.4542L56.2147 27.4167C56.1688 27.3 56.0897 27.1583 56.0813 27.0333L56.073 26.875H56.6563V29.0167C56.6563 29.5833 56.3022 30 55.3897 30C54.648 30 54.2647 29.65 54.2147 29.1292H54.8439C54.9064 29.3917 55.0647 29.4583 55.373 29.4583C55.8438 29.4583 56.073 29.275 56.073 28.9375C56.073 28.8792 56.073 28.8292 56.0772 28.7792C56.0855 28.6583 56.1688 28.5208 56.2147 28.4042L56.1147 28.3708C56.073 28.4833 56.0563 28.6542 55.973 28.7417ZM54.7605 27.9292C54.7605 28.2417 54.9647 28.4625 55.3522 28.4625C55.723 28.4625 55.9272 28.2667 55.948 27.975V27.8833C55.9272 27.5958 55.723 27.3792 55.3522 27.3792C54.9647 27.3792 54.7605 27.6208 54.7605 27.9292Z" fill="white"/>
<path d="M58.3415 29.025C57.4581 29.025 56.9831 28.525 56.9831 27.9042C56.9831 27.2833 57.4998 26.8125 58.2331 26.8125C58.9915 26.8125 59.4581 27.325 59.454 27.9042C59.454 27.95 59.4581 28.05 59.454 28.0833H57.6998C57.6998 28.2875 57.8873 28.5375 58.2831 28.5375C58.5373 28.5375 58.6956 28.4417 58.7373 28.3625H59.4081C59.3456 28.5792 59.0248 29.025 58.3415 29.025ZM57.6998 27.7208H58.7665C58.7665 27.4542 58.5706 27.2583 58.2498 27.2583C57.9248 27.2583 57.6998 27.4792 57.6998 27.7208Z" fill="white"/>
<rect x="30" y="1.04175" width="3.64582" height="4.16665" fill="white"/>
<rect x="33.6455" y="5.20831" width="4.16665" height="12.4999" fill="white"/>
<path d="M41.1455 8.27716C41.1455 8.68174 41.1455 9.0856 41.1455 9.49018C41.2877 13.7272 44.9118 17.0958 49.0039 17.6246C53.0959 18.1533 57.8874 16.1654 59.1483 11.9876C58.934 11.9876 58.7197 11.9876 58.5053 11.9876C57.4888 14.1168 55.2763 15.3976 52.933 15.4126C50.5898 15.4276 48.3238 14.3044 47.1686 12.1795C46.0127 10.0553 46.0834 7.11837 47.4501 5.08406C48.8167 3.04904 51.0835 1.95804 53.5603 2.37046C56.0371 2.7836 56.9537 6.15223 54.9869 7.75984C53.0209 9.36745 50.6405 10.3985 48.1466 10.4891C48.1466 10.2751 48.1466 10.7032 48.1466 10.4891C51.9808 10.4891 55.8142 10.4891 59.6484 10.4891C59.7348 10.1295 59.7913 9.80271 59.7913 9.41883C59.7913 9.01425 59.7913 8.61038 59.7913 8.20581C59.7913 3.31305 54.9755 -0.018475 50.4327 7.70914e-05C45.8898 0.0186292 41.1455 3.3787 41.1455 8.27716Z" fill="white"/>
</svg>
